# Blender v2.92.0 OBJ File: ''
# www.blender.org
mtllib Tetris3.mtl
o Cube
v 1.000000 1.000000 -1.000000
v 1.000000 -1.000000 -1.000000
v 1.000000 1.000000 1.000000
v 1.000000 -1.000000 1.000000
v -1.000000 1.000000 -1.000000
v -1.000000 -1.000000 -1.000000
v -1.000000 1.000000 1.000000
v -1.000000 -1.000000 1.000000
v 2.488136 1.000000 -1.000000
v 2.488136 -1.000000 -1.000000
v 2.488136 1.000000 1.000000
v 2.488136 -1.000000 1.000000
v 1.000000 2.453283 1.000000
v -1.000000 2.453283 1.000000
v 1.000000 2.453283 -1.000000
v -1.000000 2.453283 -1.000000
v -1.000000 -1.000000 2.595283
v -1.000000 1.000000 2.595283
v 1.000000 1.000000 2.595283
v 1.000000 -1.000000 2.595283
vt 0.625000 0.500000
vt 0.625000 0.750000
vt 0.625000 0.750000
vt 0.375000 0.000000
vt 0.625000 0.000000
vt 0.625000 0.000000
vt 0.375000 0.250000
vt 0.375000 0.500000
vt 0.125000 0.750000
vt 0.125000 0.500000
vt 0.625000 0.500000
vt 0.625000 0.250000
vt 0.375000 0.750000
vt 0.375000 0.500000
vt 0.375000 0.750000
vt 0.625000 0.750000
vt 0.875000 0.500000
vt 0.625000 0.500000
vt 0.625000 1.000000
vt 0.625000 1.000000
vt 0.625000 0.250000
vt 0.625000 0.750000
vt 0.375000 1.000000
vt 0.375000 0.750000
vt 0.125000 0.750000
vt 0.375000 0.000000
vt 0.875000 0.750000
vt 0.625000 0.000000
vt 0.625000 1.000000
vn 1.0000 0.0000 0.0000
vn -1.0000 0.0000 0.0000
vn 0.0000 -1.0000 0.0000
vn 0.0000 1.0000 0.0000
vn 0.0000 0.0000 -1.0000
vn 0.0000 0.0000 1.0000
usemtl Material
s off
f 1/1/1 13/2/1 3/3/1
f 8/4/2 18/5/2 7/6/2
f 7/6/2 6/7/2 8/4/2
f 2/8/3 8/9/3 6/10/3
f 3/3/4 9/11/4 1/1/4
f 5/12/5 2/8/5 6/7/5
f 9/11/1 12/13/1 10/14/1
f 4/15/6 11/16/6 3/3/6
f 1/1/5 10/14/5 2/8/5
f 2/8/3 12/13/3 4/15/3
f 16/17/4 13/2/4 15/18/4
f 5/12/5 15/18/5 1/1/5
f 3/3/6 14/19/6 7/20/6
f 7/6/2 16/21/2 5/12/2
f 19/22/6 17/23/6 20/24/6
f 4/15/3 17/25/3 8/9/3
f 7/20/4 19/22/4 3/3/4
f 3/3/1 20/24/1 4/15/1
f 1/1/1 15/18/1 13/2/1
f 8/4/2 17/26/2 18/5/2
f 7/6/2 5/12/2 6/7/2
f 2/8/3 4/15/3 8/9/3
f 3/3/4 11/16/4 9/11/4
f 5/12/5 1/1/5 2/8/5
f 9/11/1 11/16/1 12/13/1
f 4/15/6 12/13/6 11/16/6
f 1/1/5 9/11/5 10/14/5
f 2/8/3 10/14/3 12/13/3
f 16/17/4 14/27/4 13/2/4
f 5/12/5 16/21/5 15/18/5
f 3/3/6 13/2/6 14/19/6
f 7/6/2 14/28/2 16/21/2
f 19/22/6 18/29/6 17/23/6
f 4/15/3 20/24/3 17/25/3
f 7/20/4 18/29/4 19/22/4
f 3/3/1 19/22/1 20/24/1
